<svg version="1.1" xmlns="http://www.w3.org/2000/svg" xmlns:xlink="http://www.w3.org/1999/xlink" width="1915.4931640625" height="1199"><defs/><g><g transform="translate(-14,-46) scale(1,1)"><rect fill="#C0C0C0" stroke="none" x="47" y="63" width="523.1220703125" height="323" opacity="0.2"/></g><g transform="translate(-14,-46) scale(1,1)"><rect fill="#ffffff" stroke="none" x="40" y="56" width="523.1220703125" height="323"/></g><g transform="translate(-14,-46) scale(1,1)"><path fill="none" stroke="#000000" d="M 40 56 L 563.1220703125 56 L 563.1220703125 379 L 40 379 L 40 56 Z Z" stroke-miterlimit="10"/></g><g transform="translate(-14,-46) scale(1,1)"><path fill="none" stroke="#000000" d="M 40 109 L 563.1220703125 109" stroke-miterlimit="10"/></g><g transform="translate(-14,-46) scale(1,1)"><path fill="none" stroke="#000000" d="M 40 207 L 563.1220703125 207" stroke-miterlimit="10"/></g><g transform="translate(-14,-46) scale(1,1)"><g><path fill="none" stroke="none"/><text fill="#000000" stroke="none" font-family="Arial" font-size="13px" font-style="normal" font-weight="normal" text-decoration="none" x="289.99560546875" y="73.5">«E»</text></g></g><g transform="translate(-14,-46) scale(1,1)"><g><path fill="none" stroke="none"/><text fill="#000000" stroke="none" font-family="Arial" font-size="13px" font-style="normal" font-weight="bold" text-decoration="none" x="286.02197265625" y="88.5">Node</text></g></g><g transform="translate(-14,-46) scale(1,1)"><g><path fill="none" stroke="none"/><text fill="#000000" stroke="none" font-family="Arial" font-size="13px" font-style="normal" font-weight="normal" text-decoration="none" x="274.116943359375" y="103.5">(from util)</text></g></g><g transform="translate(-14,-46) scale(1,1)"><g><path fill="none" stroke="none"/><text fill="#000000" stroke="none" font-family="Arial" font-size="13px" font-style="normal" font-weight="normal" text-decoration="none" x="45" y="126.5">-data: E</text></g></g><g transform="translate(-14,-46) scale(1,1)"><g><path fill="none" stroke="none"/><text fill="#000000" stroke="none" font-family="Arial" font-size="13px" font-style="normal" font-weight="normal" text-decoration="none" x="45" y="141.5">-parent: Node&lt;E&gt;</text></g></g><g transform="translate(-14,-46) scale(1,1)"><g><path fill="none" stroke="none"/><text fill="#000000" stroke="none" font-family="Arial" font-size="13px" font-style="normal" font-weight="normal" text-decoration="none" x="45" y="156.5">-left: Node&lt;E&gt;</text></g></g><g transform="translate(-14,-46) scale(1,1)"><g><path fill="none" stroke="none"/><text fill="#000000" stroke="none" font-family="Arial" font-size="13px" font-style="normal" font-weight="normal" text-decoration="none" x="45" y="171.5">-right: Node&lt;E&gt;</text></g></g><g transform="translate(-14,-46) scale(1,1)"><g><path fill="none" stroke="none"/><text fill="#000000" stroke="none" font-family="Arial" font-size="13px" font-style="normal" font-weight="normal" text-decoration="none" x="45" y="186.5">-serialVersionUID: long = 791172966631627645L</text><path fill="none" stroke="#000000" d="M 45 186.5 L 330.84765625 186.5" stroke-miterlimit="10"/></g></g><g transform="translate(-14,-46) scale(1,1)"><g><path fill="none" stroke="none"/><text fill="#000000" stroke="none" font-family="Arial" font-size="13px" font-style="normal" font-weight="normal" text-decoration="none" x="45" y="201.5">-balancing: int</text></g></g><g transform="translate(-14,-46) scale(1,1)"><g><path fill="none" stroke="none"/><text fill="#000000" stroke="none" font-family="Arial" font-size="13px" font-style="normal" font-weight="normal" text-decoration="none" x="45" y="224.5">«constructor»+Node(dataReceived: E)</text></g></g><g transform="translate(-14,-46) scale(1,1)"><g><path fill="none" stroke="none"/><text fill="#000000" stroke="none" font-family="Arial" font-size="13px" font-style="normal" font-weight="normal" text-decoration="none" x="45" y="239.5">+getBalancing(): int</text></g></g><g transform="translate(-14,-46) scale(1,1)"><g><path fill="none" stroke="none"/><text fill="#000000" stroke="none" font-family="Arial" font-size="13px" font-style="normal" font-weight="normal" text-decoration="none" x="45" y="254.5">+getData(): E</text></g></g><g transform="translate(-14,-46) scale(1,1)"><g><path fill="none" stroke="none"/><text fill="#000000" stroke="none" font-family="Arial" font-size="13px" font-style="normal" font-weight="normal" text-decoration="none" x="45" y="269.5">+getLeft(): Node&lt;E&gt;</text></g></g><g transform="translate(-14,-46) scale(1,1)"><g><path fill="none" stroke="none"/><text fill="#000000" stroke="none" font-family="Arial" font-size="13px" font-style="normal" font-weight="normal" text-decoration="none" x="45" y="284.5">+getParent(): Node&lt;E&gt;</text></g></g><g transform="translate(-14,-46) scale(1,1)"><g><path fill="none" stroke="none"/><text fill="#000000" stroke="none" font-family="Arial" font-size="13px" font-style="normal" font-weight="normal" text-decoration="none" x="45" y="299.5">+getRight(): Node&lt;E&gt;</text></g></g><g transform="translate(-14,-46) scale(1,1)"><g><path fill="none" stroke="none"/><text fill="#000000" stroke="none" font-family="Arial" font-size="13px" font-style="normal" font-weight="normal" text-decoration="none" x="45" y="314.5">+setBalancing(int balancing): void</text></g></g><g transform="translate(-14,-46) scale(1,1)"><g><path fill="none" stroke="none"/><text fill="#000000" stroke="none" font-family="Arial" font-size="13px" font-style="normal" font-weight="normal" text-decoration="none" x="45" y="329.5">+setData(dataReceived: E)</text></g></g><g transform="translate(-14,-46) scale(1,1)"><g><path fill="none" stroke="none"/><text fill="#000000" stroke="none" font-family="Arial" font-size="13px" font-style="normal" font-weight="normal" text-decoration="none" x="45" y="344.5">+setLeft(leftReceived: Node&lt;E&gt;)</text></g></g><g transform="translate(-14,-46) scale(1,1)"><g><path fill="none" stroke="none"/><text fill="#000000" stroke="none" font-family="Arial" font-size="13px" font-style="normal" font-weight="normal" text-decoration="none" x="45" y="359.5">+setParent(parentReceived: Node&lt;E&gt;)</text></g></g><g transform="translate(-14,-46) scale(1,1)"><g><path fill="none" stroke="none"/><text fill="#000000" stroke="none" font-family="Arial" font-size="13px" font-style="normal" font-weight="normal" text-decoration="none" x="45" y="374.5">+setRight(rightReceived: Node&lt;E&gt;)</text></g></g><g transform="translate(-14,-46) scale(1,1)"><rect fill="#C0C0C0" stroke="none" x="807" y="103" width="742.052734375" height="250" opacity="0.2"/></g><g transform="translate(-14,-46) scale(1,1)"><rect fill="#ffffff" stroke="none" x="800" y="96" width="742.052734375" height="250"/></g><g transform="translate(-14,-46) scale(1,1)"><path fill="none" stroke="#000000" d="M 800 96 L 1542.052734375 96 L 1542.052734375 346 L 800 346 L 800 96 Z Z" stroke-miterlimit="10"/></g><g transform="translate(-14,-46) scale(1,1)"><path fill="none" stroke="#000000" d="M 800 136 L 1542.052734375 136" stroke-miterlimit="10"/></g><g transform="translate(-14,-46) scale(1,1)"><path fill="none" stroke="#000000" d="M 800 204 L 1542.052734375 204" stroke-miterlimit="10"/></g><g transform="translate(-14,-46) scale(1,1)"><g><path fill="none" stroke="none"/><text fill="#000000" stroke="none" font-family="Arial" font-size="13px" font-style="normal" font-weight="bold" text-decoration="none" x="1133.813232421875" y="115.5">Merchandise</text></g></g><g transform="translate(-14,-46) scale(1,1)"><g><path fill="none" stroke="none"/><text fill="#000000" stroke="none" font-family="Arial" font-size="13px" font-style="normal" font-weight="normal" text-decoration="none" x="1114.31640625" y="130.5">(from valueObjects)</text></g></g><g transform="translate(-14,-46) scale(1,1)"><g><path fill="none" stroke="none"/><text fill="#000000" stroke="none" font-family="Arial" font-size="13px" font-style="normal" font-weight="normal" text-decoration="none" x="805" y="153.5">-localization: Localization</text></g></g><g transform="translate(-14,-46) scale(1,1)"><g><path fill="none" stroke="none"/><text fill="#000000" stroke="none" font-family="Arial" font-size="13px" font-style="normal" font-weight="normal" text-decoration="none" x="805" y="168.5">-provider: String</text></g></g><g transform="translate(-14,-46) scale(1,1)"><g><path fill="none" stroke="none"/><text fill="#000000" stroke="none" font-family="Arial" font-size="13px" font-style="normal" font-weight="normal" text-decoration="none" x="805" y="183.5">-insertDate: LocalDate</text></g></g><g transform="translate(-14,-46) scale(1,1)"><g><path fill="none" stroke="none"/><text fill="#000000" stroke="none" font-family="Arial" font-size="13px" font-style="normal" font-weight="normal" text-decoration="none" x="805" y="198.5">-insertHour: LocalTime</text></g></g><g transform="translate(-14,-46) scale(1,1)"><g><path fill="none" stroke="none"/><text fill="#000000" stroke="none" font-family="Arial" font-size="13px" font-style="normal" font-weight="normal" text-decoration="none" x="805" y="221.5">«constructor»+Mercadoria(receivedLocalization, providerReceived: String, dateReceived: LocalDate, timeReceived: LocalTime)</text></g></g><g transform="translate(-14,-46) scale(1,1)"><g><path fill="none" stroke="none"/><text fill="#000000" stroke="none" font-family="Arial" font-size="13px" font-style="normal" font-weight="normal" text-decoration="none" x="805" y="236.5">+getLocalization(): Localization</text></g></g><g transform="translate(-14,-46) scale(1,1)"><g><path fill="none" stroke="none"/><text fill="#000000" stroke="none" font-family="Arial" font-size="13px" font-style="normal" font-weight="normal" text-decoration="none" x="805" y="251.5">+setLocalization(value: Localization)</text></g></g><g transform="translate(-14,-46) scale(1,1)"><g><path fill="none" stroke="none"/><text fill="#000000" stroke="none" font-family="Arial" font-size="13px" font-style="normal" font-weight="normal" text-decoration="none" x="805" y="266.5">+getProvider(): String</text></g></g><g transform="translate(-14,-46) scale(1,1)"><g><path fill="none" stroke="none"/><text fill="#000000" stroke="none" font-family="Arial" font-size="13px" font-style="normal" font-weight="normal" text-decoration="none" x="805" y="281.5">+setProvider(value: String)</text></g></g><g transform="translate(-14,-46) scale(1,1)"><g><path fill="none" stroke="none"/><text fill="#000000" stroke="none" font-family="Arial" font-size="13px" font-style="normal" font-weight="normal" text-decoration="none" x="805" y="296.5">+getInsertDate(): LocalDate</text></g></g><g transform="translate(-14,-46) scale(1,1)"><g><path fill="none" stroke="none"/><text fill="#000000" stroke="none" font-family="Arial" font-size="13px" font-style="normal" font-weight="normal" text-decoration="none" x="805" y="311.5">+setInsertDate(value: LocalDate)</text></g></g><g transform="translate(-14,-46) scale(1,1)"><g><path fill="none" stroke="none"/><text fill="#000000" stroke="none" font-family="Arial" font-size="13px" font-style="normal" font-weight="normal" text-decoration="none" x="805" y="326.5">+getInsertHour(): LocalTime</text></g></g><g transform="translate(-14,-46) scale(1,1)"><g><path fill="none" stroke="none"/><text fill="#000000" stroke="none" font-family="Arial" font-size="13px" font-style="normal" font-weight="normal" text-decoration="none" x="805" y="341.5">+setInsertHour(value: LocalTime)</text></g></g><g transform="translate(-14,-46) scale(1,1)"><rect fill="#C0C0C0" stroke="none" x="847" y="727" width="680.6455078125" height="250" opacity="0.2"/></g><g transform="translate(-14,-46) scale(1,1)"><rect fill="#ffffff" stroke="none" x="840" y="720" width="680.6455078125" height="250"/></g><g transform="translate(-14,-46) scale(1,1)"><path fill="none" stroke="#000000" d="M 840 720 L 1520.6455078125 720 L 1520.6455078125 970 L 840 970 L 840 720 Z Z" stroke-miterlimit="10"/></g><g transform="translate(-14,-46) scale(1,1)"><path fill="none" stroke="#000000" d="M 840 760 L 1520.6455078125 760" stroke-miterlimit="10"/></g><g transform="translate(-14,-46) scale(1,1)"><path fill="none" stroke="#000000" d="M 840 828 L 1520.6455078125 828" stroke-miterlimit="10"/></g><g transform="translate(-14,-46) scale(1,1)"><g><path fill="none" stroke="none"/><text fill="#000000" stroke="none" font-family="Arial" font-size="13px" font-style="normal" font-weight="bold" text-decoration="none" x="1145.99462890625" y="739.5">Localization</text></g></g><g transform="translate(-14,-46) scale(1,1)"><g><path fill="none" stroke="none"/><text fill="#000000" stroke="none" font-family="Arial" font-size="13px" font-style="normal" font-weight="normal" text-decoration="none" x="1123.61279296875" y="754.5">(from valueObjects)</text></g></g><g transform="translate(-14,-46) scale(1,1)"><g><path fill="none" stroke="none"/><text fill="#000000" stroke="none" font-family="Arial" font-size="13px" font-style="normal" font-weight="normal" text-decoration="none" x="845" y="777.5">-lotId: int</text></g></g><g transform="translate(-14,-46) scale(1,1)"><g><path fill="none" stroke="none"/><text fill="#000000" stroke="none" font-family="Arial" font-size="13px" font-style="normal" font-weight="normal" text-decoration="none" x="845" y="792.5">-address: String</text></g></g><g transform="translate(-14,-46) scale(1,1)"><g><path fill="none" stroke="none"/><text fill="#000000" stroke="none" font-family="Arial" font-size="13px" font-style="normal" font-weight="normal" text-decoration="none" x="845" y="807.5">-block: String</text></g></g><g transform="translate(-14,-46) scale(1,1)"><g><path fill="none" stroke="none"/><text fill="#000000" stroke="none" font-family="Arial" font-size="13px" font-style="normal" font-weight="normal" text-decoration="none" x="845" y="822.5">-merchandiseNumber: int</text></g></g><g transform="translate(-14,-46) scale(1,1)"><g><path fill="none" stroke="none"/><text fill="#000000" stroke="none" font-family="Arial" font-size="13px" font-style="normal" font-weight="normal" text-decoration="none" x="845" y="845.5">«constructor»+Localization(lotIdReceived: int, addressReceived: String, blockReceived: String, numberReceived: int)</text></g></g><g transform="translate(-14,-46) scale(1,1)"><g><path fill="none" stroke="none"/><text fill="#000000" stroke="none" font-family="Arial" font-size="13px" font-style="normal" font-weight="normal" text-decoration="none" x="845" y="860.5">+getLotId(): int</text></g></g><g transform="translate(-14,-46) scale(1,1)"><g><path fill="none" stroke="none"/><text fill="#000000" stroke="none" font-family="Arial" font-size="13px" font-style="normal" font-weight="normal" text-decoration="none" x="845" y="875.5">+setLotId(value: int)</text></g></g><g transform="translate(-14,-46) scale(1,1)"><g><path fill="none" stroke="none"/><text fill="#000000" stroke="none" font-family="Arial" font-size="13px" font-style="normal" font-weight="normal" text-decoration="none" x="845" y="890.5">+getAddress(): String</text></g></g><g transform="translate(-14,-46) scale(1,1)"><g><path fill="none" stroke="none"/><text fill="#000000" stroke="none" font-family="Arial" font-size="13px" font-style="normal" font-weight="normal" text-decoration="none" x="845" y="905.5">+setAddress(value: String)</text></g></g><g transform="translate(-14,-46) scale(1,1)"><g><path fill="none" stroke="none"/><text fill="#000000" stroke="none" font-family="Arial" font-size="13px" font-style="normal" font-weight="normal" text-decoration="none" x="845" y="920.5">+getBlock(): String</text></g></g><g transform="translate(-14,-46) scale(1,1)"><g><path fill="none" stroke="none"/><text fill="#000000" stroke="none" font-family="Arial" font-size="13px" font-style="normal" font-weight="normal" text-decoration="none" x="845" y="935.5">+setBlock(value: String)</text></g></g><g transform="translate(-14,-46) scale(1,1)"><g><path fill="none" stroke="none"/><text fill="#000000" stroke="none" font-family="Arial" font-size="13px" font-style="normal" font-weight="normal" text-decoration="none" x="845" y="950.5">+getMerchandiseNumber(): int</text></g></g><g transform="translate(-14,-46) scale(1,1)"><g><path fill="none" stroke="none"/><text fill="#000000" stroke="none" font-family="Arial" font-size="13px" font-style="normal" font-weight="normal" text-decoration="none" x="845" y="965.5">+setMerchandiseNumber(value: int)</text></g></g><g transform="translate(-14,-46) scale(1,1)"><rect fill="#C0C0C0" stroke="none" x="367" y="631" width="395.23583984375" height="443" opacity="0.2"/></g><g transform="translate(-14,-46) scale(1,1)"><rect fill="#ffffff" stroke="none" x="360" y="624" width="395.23583984375" height="443"/></g><g transform="translate(-14,-46) scale(1,1)"><path fill="none" stroke="#000000" d="M 360 624 L 755.23583984375 624 L 755.23583984375 1067 L 360 1067 L 360 624 Z Z" stroke-miterlimit="10"/></g><g transform="translate(-14,-46) scale(1,1)"><path fill="none" stroke="#000000" d="M 360 677 L 755.23583984375 677" stroke-miterlimit="10"/></g><g transform="translate(-14,-46) scale(1,1)"><path fill="none" stroke="#000000" d="M 360 730 L 755.23583984375 730" stroke-miterlimit="10"/></g><g transform="translate(-14,-46) scale(1,1)"><g><path fill="none" stroke="none"/><text fill="#000000" stroke="none" font-family="Arial" font-size="13px" font-style="normal" font-weight="normal" text-decoration="none" x="546.052490234375" y="641.5">«E»</text></g></g><g transform="translate(-14,-46) scale(1,1)"><g><path fill="none" stroke="none"/><text fill="#000000" stroke="none" font-family="Arial" font-size="13px" font-style="normal" font-weight="bold" text-decoration="none" x="535.223388671875" y="656.5">AvlTree</text></g></g><g transform="translate(-14,-46) scale(1,1)"><g><path fill="none" stroke="none"/><text fill="#000000" stroke="none" font-family="Arial" font-size="13px" font-style="normal" font-weight="normal" text-decoration="none" x="530.173828125" y="671.5">(from util)</text></g></g><g transform="translate(-14,-46) scale(1,1)"><g><path fill="none" stroke="none"/><text fill="#000000" stroke="none" font-family="Arial" font-size="13px" font-style="normal" font-weight="normal" text-decoration="none" x="365" y="694.5">-root: Node&lt;E&gt;</text></g></g><g transform="translate(-14,-46) scale(1,1)"><g><path fill="none" stroke="none"/><text fill="#000000" stroke="none" font-family="Arial" font-size="13px" font-style="normal" font-weight="normal" text-decoration="none" x="365" y="709.5">-sizeVar: int</text></g></g><g transform="translate(-14,-46) scale(1,1)"><g><path fill="none" stroke="none"/><text fill="#000000" stroke="none" font-family="Arial" font-size="13px" font-style="normal" font-weight="normal" text-decoration="none" x="365" y="724.5">-serialVersionUID: long = -7488367896222321979L</text></g></g><g transform="translate(-14,-46) scale(1,1)"><g><path fill="none" stroke="none"/><text fill="#000000" stroke="none" font-family="Arial" font-size="13px" font-style="normal" font-weight="normal" text-decoration="none" x="365" y="747.5">«constructor»+AvlTree()</text></g></g><g transform="translate(-14,-46) scale(1,1)"><g><path fill="none" stroke="none"/><text fill="#000000" stroke="none" font-family="Arial" font-size="13px" font-style="normal" font-weight="normal" text-decoration="none" x="365" y="762.5">+add(data: E)</text></g></g><g transform="translate(-14,-46) scale(1,1)"><g><path fill="none" stroke="none"/><text fill="#000000" stroke="none" font-family="Arial" font-size="13px" font-style="normal" font-weight="normal" text-decoration="none" x="365" y="777.5">-addAVL(toCompare: Node&lt;E&gt;, toInsert: Node&lt;E&gt;): void</text></g></g><g transform="translate(-14,-46) scale(1,1)"><g><path fill="none" stroke="none"/><text fill="#000000" stroke="none" font-family="Arial" font-size="13px" font-style="normal" font-weight="normal" text-decoration="none" x="365" y="792.5">-checkBalancing(current: Node&lt;E&gt;): void</text></g></g><g transform="translate(-14,-46) scale(1,1)"><g><path fill="none" stroke="none"/><text fill="#000000" stroke="none" font-family="Arial" font-size="13px" font-style="normal" font-weight="normal" text-decoration="none" x="365" y="807.5">-doubleRotationLeftRight(initial: Node&lt;E&gt;): Node&lt;E&gt;</text></g></g><g transform="translate(-14,-46) scale(1,1)"><g><path fill="none" stroke="none"/><text fill="#000000" stroke="none" font-family="Arial" font-size="13px" font-style="normal" font-weight="normal" text-decoration="none" x="365" y="822.5">-doubleRotationRightLeft(initial: Node&lt;E&gt;): Node&lt;E&gt;</text></g></g><g transform="translate(-14,-46) scale(1,1)"><g><path fill="none" stroke="none"/><text fill="#000000" stroke="none" font-family="Arial" font-size="13px" font-style="normal" font-weight="normal" text-decoration="none" x="365" y="837.5">+height(): int</text></g></g><g transform="translate(-14,-46) scale(1,1)"><g><path fill="none" stroke="none"/><text fill="#000000" stroke="none" font-family="Arial" font-size="13px" font-style="normal" font-weight="normal" text-decoration="none" x="365" y="852.5">-height(current: Node&lt;E&gt;): int</text></g></g><g transform="translate(-14,-46) scale(1,1)"><g><path fill="none" stroke="none"/><text fill="#000000" stroke="none" font-family="Arial" font-size="13px" font-style="normal" font-weight="normal" text-decoration="none" x="365" y="867.5">#inOrder(): IQueue&lt;E&gt;</text></g></g><g transform="translate(-14,-46) scale(1,1)"><g><path fill="none" stroke="none"/><text fill="#000000" stroke="none" font-family="Arial" font-size="13px" font-style="normal" font-weight="normal" text-decoration="none" x="365" y="882.5">#inOrder(node: Node&lt;E&gt;, queue: IQueue&lt;E&gt;): void</text></g></g><g transform="translate(-14,-46) scale(1,1)"><g><path fill="none" stroke="none"/><text fill="#000000" stroke="none" font-family="Arial" font-size="13px" font-style="normal" font-weight="normal" text-decoration="none" x="365" y="897.5">+isEmpty(): boolean</text></g></g><g transform="translate(-14,-46) scale(1,1)"><g><path fill="none" stroke="none"/><text fill="#000000" stroke="none" font-family="Arial" font-size="13px" font-style="normal" font-weight="normal" text-decoration="none" x="365" y="912.5">-leftRotation(initial: Node&lt;E&gt;): void</text></g></g><g transform="translate(-14,-46) scale(1,1)"><g><path fill="none" stroke="none"/><text fill="#000000" stroke="none" font-family="Arial" font-size="13px" font-style="normal" font-weight="normal" text-decoration="none" x="365" y="927.5">+list(): Iterator&lt;E&gt;</text></g></g><g transform="translate(-14,-46) scale(1,1)"><g><path fill="none" stroke="none"/><text fill="#000000" stroke="none" font-family="Arial" font-size="13px" font-style="normal" font-weight="normal" text-decoration="none" x="365" y="942.5">+remove(data: E): E</text></g></g><g transform="translate(-14,-46) scale(1,1)"><g><path fill="none" stroke="none"/><text fill="#000000" stroke="none" font-family="Arial" font-size="13px" font-style="normal" font-weight="normal" text-decoration="none" x="365" y="957.5">-removeAVL(current: Node&lt;E&gt;, data: E): E</text></g></g><g transform="translate(-14,-46) scale(1,1)"><g><path fill="none" stroke="none"/><text fill="#000000" stroke="none" font-family="Arial" font-size="13px" font-style="normal" font-weight="normal" text-decoration="none" x="365" y="972.5">-removeFoundNode(roRemove: Node&lt;E&gt;): void</text></g></g><g transform="translate(-14,-46) scale(1,1)"><g><path fill="none" stroke="none"/><text fill="#000000" stroke="none" font-family="Arial" font-size="13px" font-style="normal" font-weight="normal" text-decoration="none" x="365" y="987.5">-rightRotation(initial: Node&lt;E&gt;): Node&lt;E&gt;</text></g></g><g transform="translate(-14,-46) scale(1,1)"><g><path fill="none" stroke="none"/><text fill="#000000" stroke="none" font-family="Arial" font-size="13px" font-style="normal" font-weight="normal" text-decoration="none" x="365" y="1002.5">+search(data: E): E</text></g></g><g transform="translate(-14,-46) scale(1,1)"><g><path fill="none" stroke="none"/><text fill="#000000" stroke="none" font-family="Arial" font-size="13px" font-style="normal" font-weight="normal" text-decoration="none" x="365" y="1017.5">-search(current: Node&lt;E&gt;, data: E): E</text></g></g><g transform="translate(-14,-46) scale(1,1)"><g><path fill="none" stroke="none"/><text fill="#000000" stroke="none" font-family="Arial" font-size="13px" font-style="normal" font-weight="normal" text-decoration="none" x="365" y="1032.5">-setBalancing(node: Node&lt;E&gt;): void</text></g></g><g transform="translate(-14,-46) scale(1,1)"><g><path fill="none" stroke="none"/><text fill="#000000" stroke="none" font-family="Arial" font-size="13px" font-style="normal" font-weight="normal" text-decoration="none" x="365" y="1047.5">+size(): int</text></g></g><g transform="translate(-14,-46) scale(1,1)"><g><path fill="none" stroke="none"/><text fill="#000000" stroke="none" font-family="Arial" font-size="13px" font-style="normal" font-weight="normal" text-decoration="none" x="365" y="1062.5">-successor(q: Node&lt;E&gt;): Node&lt;E&gt;</text></g></g><g transform="translate(-14,-46) scale(1,1)"><path fill="#C0C0C0" stroke="none" d="M 115.444091796875 642.5 C 115.444091796875 636.1487248 120.592816596875 631 126.944091796875 631 C 133.295366996875 631 138.444091796875 636.1487248 138.444091796875 642.5 C 138.444091796875 648.8512752 133.295366996875 654 126.944091796875 654 C 120.592816596875 654 115.444091796875 648.8512752 115.444091796875 642.5 Z" opacity="0.2"/></g><g transform="translate(-14,-46) scale(1,1)"><path fill="#ffffff" stroke="none" d="M 108.444091796875 635.5 C 108.444091796875 629.1487248 113.592816596875 624 119.944091796875 624 C 126.295366996875 624 131.444091796875 629.1487248 131.444091796875 635.5 C 131.444091796875 641.8512752 126.295366996875 647 119.944091796875 647 C 113.592816596875 647 108.444091796875 641.8512752 108.444091796875 635.5 Z"/></g><g transform="translate(-14,-46) scale(1,1)"><path fill="none" stroke="#000000" d="M 108.444091796875 635.5 C 108.444091796875 629.1487248 113.592816596875 624 119.944091796875 624 C 126.295366996875 624 131.444091796875 629.1487248 131.444091796875 635.5 C 131.444091796875 641.8512752 126.295366996875 647 119.944091796875 647 C 113.592816596875 647 108.444091796875 641.8512752 108.444091796875 635.5 Z" stroke-miterlimit="10"/></g><g transform="translate(-14,-46) scale(1,1)"><g><path fill="none" stroke="none"/><text fill="#000000" stroke="none" font-family="Arial" font-size="13px" font-style="normal" font-weight="bold" text-decoration="none" x="99.352294921875" y="666.5">Iterator</text></g></g><g transform="translate(-14,-46) scale(1,1)"><g><path fill="none" stroke="none"/><text fill="#000000" stroke="none" font-family="Arial" font-size="13px" font-style="normal" font-weight="normal" text-decoration="none" x="92.5" y="681.5">(from util)</text></g></g><g transform="translate(-14,-46) scale(1,1)"><path fill="none" stroke="#000000" d="M 153 670 L 359 759" stroke-miterlimit="10"/></g><g transform="translate(-14,-46) scale(1,1)"><path fill="none" stroke="#000000" d="M 467 623 L 367 380" stroke-miterlimit="10"/></g><g transform="translate(-14,-46) scale(1,1)"><rect fill="#C0C0C0" stroke="none" x="1519" y="439" width="407.4931640625" height="205" opacity="0.2"/></g><g transform="translate(-14,-46) scale(1,1)"><rect fill="#ffffff" stroke="none" x="1512" y="432" width="407.4931640625" height="205"/></g><g transform="translate(-14,-46) scale(1,1)"><path fill="none" stroke="#000000" d="M 1512 432 L 1919.4931640625 432 L 1919.4931640625 637 L 1512 637 L 1512 432 Z Z" stroke-miterlimit="10"/></g><g transform="translate(-14,-46) scale(1,1)"><path fill="none" stroke="#000000" d="M 1512 472 L 1919.4931640625 472" stroke-miterlimit="10"/></g><g transform="translate(-14,-46) scale(1,1)"><path fill="none" stroke="#000000" d="M 1512 495 L 1919.4931640625 495" stroke-miterlimit="10"/></g><g transform="translate(-14,-46) scale(1,1)"><g><path fill="none" stroke="none"/><text fill="#000000" stroke="none" font-family="Arial" font-size="13px" font-style="normal" font-weight="bold" text-decoration="none" x="1656.85302734375" y="451.5">WarehouseManager</text></g></g><g transform="translate(-14,-46) scale(1,1)"><g><path fill="none" stroke="none"/><text fill="#000000" stroke="none" font-family="Arial" font-size="13px" font-style="normal" font-weight="normal" text-decoration="none" x="1648.921630859375" y="466.5">(from businessObjects)</text></g></g><g transform="translate(-14,-46) scale(1,1)"><g><path fill="none" stroke="none"/><text fill="#000000" stroke="none" font-family="Arial" font-size="13px" font-style="normal" font-weight="normal" text-decoration="none" x="1517" y="489.5">-stockedProducts: AvlTree&lt;Merchandise&gt;</text></g></g><g transform="translate(-14,-46) scale(1,1)"><g><path fill="none" stroke="none"/><text fill="#000000" stroke="none" font-family="Arial" font-size="13px" font-style="normal" font-weight="normal" text-decoration="none" x="1517" y="512.5">«constructor»+WarehouseManager()</text></g></g><g transform="translate(-14,-46) scale(1,1)"><g><path fill="none" stroke="none"/><text fill="#000000" stroke="none" font-family="Arial" font-size="13px" font-style="normal" font-weight="normal" text-decoration="none" x="1517" y="527.5">+readInputFile(fileName: String): String</text></g></g><g transform="translate(-14,-46) scale(1,1)"><g><path fill="none" stroke="none"/><text fill="#000000" stroke="none" font-family="Arial" font-size="13px" font-style="normal" font-weight="normal" text-decoration="none" x="1517" y="542.5">+saveProgram(): void</text></g></g><g transform="translate(-14,-46) scale(1,1)"><g><path fill="none" stroke="none"/><text fill="#000000" stroke="none" font-family="Arial" font-size="13px" font-style="normal" font-weight="normal" text-decoration="none" x="1517" y="557.5">+loadProgram(): void</text></g></g><g transform="translate(-14,-46) scale(1,1)"><g><path fill="none" stroke="none"/><text fill="#000000" stroke="none" font-family="Arial" font-size="13px" font-style="normal" font-weight="normal" text-decoration="none" x="1517" y="572.5">+registerMerchandise(attributes: String): void</text></g></g><g transform="translate(-14,-46) scale(1,1)"><g><path fill="none" stroke="none"/><text fill="#000000" stroke="none" font-family="Arial" font-size="13px" font-style="normal" font-weight="normal" text-decoration="none" x="1517" y="587.5">+removeMerchandise(merchandiseId: Merchandise): Merchandise</text></g></g><g transform="translate(-14,-46) scale(1,1)"><g><path fill="none" stroke="none"/><text fill="#000000" stroke="none" font-family="Arial" font-size="13px" font-style="normal" font-weight="normal" text-decoration="none" x="1517" y="602.5">+searchMerchandise(merchandise: Merchandise): Merchandise</text></g></g><g transform="translate(-14,-46) scale(1,1)"><g><path fill="none" stroke="none"/><text fill="#000000" stroke="none" font-family="Arial" font-size="13px" font-style="normal" font-weight="normal" text-decoration="none" x="1517" y="617.5">+listAll(): Iterator&lt;Merchandise&gt;</text></g></g><g transform="translate(-14,-46) scale(1,1)"><g><path fill="none" stroke="none"/><text fill="#000000" stroke="none" font-family="Arial" font-size="13px" font-style="normal" font-weight="normal" text-decoration="none" x="1517" y="632.5">+totalMerchandise(): int</text></g></g><g transform="translate(-14,-46) scale(1,1)"><path fill="none" stroke="#000000" d="M 1390 347 L 1536 431" stroke-miterlimit="10"/></g><g transform="translate(-14,-46) scale(1,1)"><path fill="#C0C0C0" stroke="none" d="M 755.76904296875 426.5 C 755.76904296875 420.1487248 760.91776776875 415 767.26904296875 415 C 773.62031816875 415 778.76904296875 420.1487248 778.76904296875 426.5 C 778.76904296875 432.8512752 773.62031816875 438 767.26904296875 438 C 760.91776776875 438 755.76904296875 432.8512752 755.76904296875 426.5 Z" opacity="0.2"/></g><g transform="translate(-14,-46) scale(1,1)"><path fill="#ffffff" stroke="none" d="M 748.76904296875 419.5 C 748.76904296875 413.1487248 753.91776776875 408 760.26904296875 408 C 766.62031816875 408 771.76904296875 413.1487248 771.76904296875 419.5 C 771.76904296875 425.8512752 766.62031816875 431 760.26904296875 431 C 753.91776776875 431 748.76904296875 425.8512752 748.76904296875 419.5 Z"/></g><g transform="translate(-14,-46) scale(1,1)"><path fill="none" stroke="#000000" d="M 748.76904296875 419.5 C 748.76904296875 413.1487248 753.91776776875 408 760.26904296875 408 C 766.62031816875 408 771.76904296875 413.1487248 771.76904296875 419.5 C 771.76904296875 425.8512752 766.62031816875 431 760.26904296875 431 C 753.91776776875 431 748.76904296875 425.8512752 748.76904296875 419.5 Z" stroke-miterlimit="10"/></g><g transform="translate(-14,-46) scale(1,1)"><g><path fill="none" stroke="none"/><text fill="#000000" stroke="none" font-family="Arial" font-size="13px" font-style="normal" font-weight="bold" text-decoration="none" x="726.667724609375" y="450.5">Serializable</text></g></g><g transform="translate(-14,-46) scale(1,1)"><path fill="none" stroke="#000000" d="M 1173 347 L 1178 719" stroke-miterlimit="10"/></g><g transform="translate(-14,-46) scale(1,1)"><rect fill="#C0C0C0" stroke="none" x="31" y="999" width="207.3515625" height="115" opacity="0.2"/></g><g transform="translate(-14,-46) scale(1,1)"><rect fill="#ffffff" stroke="none" x="24" y="992" width="207.3515625" height="115"/></g><g transform="translate(-14,-46) scale(1,1)"><path fill="none" stroke="#000000" d="M 24 992 L 231.3515625 992 L 231.3515625 1107 L 24 1107 L 24 992 Z Z" stroke-miterlimit="10"/></g><g transform="translate(-14,-46) scale(1,1)"><path fill="none" stroke="#000000" d="M 24 1032 L 231.3515625 1032" stroke-miterlimit="10"/></g><g transform="translate(-14,-46) scale(1,1)"><path fill="none" stroke="#000000" d="M 24 1055 L 231.3515625 1055" stroke-miterlimit="10"/></g><g transform="translate(-14,-46) scale(1,1)"><g><path fill="none" stroke="none"/><text fill="#000000" stroke="none" font-family="Arial" font-size="13px" font-style="normal" font-weight="bold" text-decoration="none" x="98.054443359375" y="1011.5">AvlIterator</text></g></g><g transform="translate(-14,-46) scale(1,1)"><g><path fill="none" stroke="none"/><text fill="#000000" stroke="none" font-family="Arial" font-size="13px" font-style="normal" font-weight="normal" text-decoration="none" x="100.231689453125" y="1026.5">(from util)</text></g></g><g transform="translate(-14,-46) scale(1,1)"><g><path fill="none" stroke="none"/><text fill="#000000" stroke="none" font-family="Arial" font-size="13px" font-style="normal" font-weight="normal" text-decoration="none" x="29" y="1049.5">-search: IQueue&lt;E&gt;</text></g></g><g transform="translate(-14,-46) scale(1,1)"><g><path fill="none" stroke="none"/><text fill="#000000" stroke="none" font-family="Arial" font-size="13px" font-style="normal" font-weight="normal" text-decoration="none" x="29" y="1072.5">+AvlIterator(received: IQueue&lt;E&gt;)</text></g></g><g transform="translate(-14,-46) scale(1,1)"><g><path fill="none" stroke="none"/><text fill="#000000" stroke="none" font-family="Arial" font-size="13px" font-style="normal" font-weight="normal" text-decoration="none" x="29" y="1087.5">+hasNext(): boolean</text></g></g><g transform="translate(-14,-46) scale(1,1)"><g><path fill="none" stroke="none"/><text fill="#000000" stroke="none" font-family="Arial" font-size="13px" font-style="normal" font-weight="normal" text-decoration="none" x="29" y="1102.5">+next(): E</text></g></g><g transform="translate(-14,-46) scale(1,1)"><path fill="none" stroke="#000000" d="M 359 939 L 232 999" stroke-miterlimit="10"/></g><g transform="translate(-14,-46) scale(1,1)"><path fill="none" stroke="#000000" d="M 239.39063752483392 990.8527012466391 L 232 999 L 242.98698010795604 998.4649597142476" stroke-miterlimit="10"/></g><g transform="translate(-14,-46) scale(1,1)"><path fill="none" stroke="#000000" d="M 126 991 L 120 688" stroke-miterlimit="10"/></g><g transform="translate(-14,-46) scale(1,1)"><path fill="#FFFFFF" stroke="none" d="M 128.81978865329611 708.154685016422 L 120 688 L 111.98501791758687 708.4880468131688"/></g><g transform="translate(-14,-46) scale(1,1)"><path fill="none" stroke="#000000" d="M 128.81978865329611 708.154685016422 L 120 688 L 111.98501791758687 708.4880468131688 L 128.81978865329611 708.154685016422" stroke-miterlimit="10"/></g><g transform="translate(-14,-46) scale(1,1)"><path fill="none" stroke="#000000" d="M 926 347 L 802 411" stroke-miterlimit="10"/></g><g transform="translate(-14,-46) scale(1,1)"><path fill="#FFFFFF" stroke="none" d="M 816.200194589946 394.19659339277695 L 802 411 L 823.9228566477216 409.1592511297171"/></g><g transform="translate(-14,-46) scale(1,1)"><path fill="none" stroke="#000000" d="M 816.200194589946 394.19659339277695 L 802 411 L 823.9228566477216 409.1592511297171 L 816.200194589946 394.19659339277695" stroke-miterlimit="10"/></g><g transform="translate(-14,-46) scale(1,1)"><path fill="none" stroke="#000000" d="M 1052 719 L 785 457" stroke-miterlimit="10"/></g><g transform="translate(-14,-46) scale(1,1)"><path fill="#FFFFFF" stroke="none" d="M 805.4040133294391 465.22655699865203 L 785 457 L 793.6107619491027 477.2448704282316"/></g><g transform="translate(-14,-46) scale(1,1)"><path fill="none" stroke="#000000" d="M 805.4040133294391 465.22655699865203 L 785 457 L 793.6107619491027 477.2448704282316 L 805.4040133294391 465.22655699865203" stroke-miterlimit="10"/></g><g transform="translate(-14,-46) scale(1,1)"><rect fill="#C0C0C0" stroke="none" x="879" y="1039" width="251.4296875" height="203" opacity="0.2"/></g><g transform="translate(-14,-46) scale(1,1)"><rect fill="#ffffff" stroke="none" x="872" y="1032" width="251.4296875" height="203"/></g><g transform="translate(-14,-46) scale(1,1)"><path fill="none" stroke="#000000" d="M 872 1032 L 1123.4296875 1032 L 1123.4296875 1235 L 872 1235 L 872 1032 Z Z" stroke-miterlimit="10"/></g><g transform="translate(-14,-46) scale(1,1)"><path fill="none" stroke="#000000" d="M 872 1085 L 1123.4296875 1085" stroke-miterlimit="10"/></g><g transform="translate(-14,-46) scale(1,1)"><path fill="none" stroke="#000000" d="M 872 1138 L 1123.4296875 1138" stroke-miterlimit="10"/></g><g transform="translate(-14,-46) scale(1,1)"><g><path fill="none" stroke="none"/><text fill="#000000" stroke="none" font-family="Arial" font-size="13px" font-style="normal" font-weight="normal" text-decoration="none" x="948.936279296875" y="1049.5">«TypeReceived»</text></g></g><g transform="translate(-14,-46) scale(1,1)"><g><path fill="none" stroke="none"/><text fill="#000000" stroke="none" font-family="Arial" font-size="13px" font-style="normal" font-weight="bold" text-decoration="none" x="978.198974609375" y="1064.5">Queue</text></g></g><g transform="translate(-14,-46) scale(1,1)"><g><path fill="none" stroke="none"/><text fill="#000000" stroke="none" font-family="Arial" font-size="13px" font-style="normal" font-weight="normal" text-decoration="none" x="970.270751953125" y="1079.5">(from util)</text></g></g><g transform="translate(-14,-46) scale(1,1)"><g><path fill="none" stroke="none"/><text fill="#000000" stroke="none" font-family="Arial" font-size="13px" font-style="normal" font-weight="normal" text-decoration="none" x="877" y="1102.5">-first: Node&lt;TypeReceived&gt;</text></g></g><g transform="translate(-14,-46) scale(1,1)"><g><path fill="none" stroke="none"/><text fill="#000000" stroke="none" font-family="Arial" font-size="13px" font-style="normal" font-weight="normal" text-decoration="none" x="877" y="1117.5">-last: Node&lt;TypeReceived&gt;</text></g></g><g transform="translate(-14,-46) scale(1,1)"><g><path fill="none" stroke="none"/><text fill="#000000" stroke="none" font-family="Arial" font-size="13px" font-style="normal" font-weight="normal" text-decoration="none" x="877" y="1132.5">-sizeVar: int</text></g></g><g transform="translate(-14,-46) scale(1,1)"><g><path fill="none" stroke="none"/><text fill="#000000" stroke="none" font-family="Arial" font-size="13px" font-style="normal" font-weight="normal" text-decoration="none" x="877" y="1155.5">«constructor»+Queue()</text></g></g><g transform="translate(-14,-46) scale(1,1)"><g><path fill="none" stroke="none"/><text fill="#000000" stroke="none" font-family="Arial" font-size="13px" font-style="normal" font-weight="normal" text-decoration="none" x="877" y="1170.5">+add(receivedInformation: TypeReceived)</text></g></g><g transform="translate(-14,-46) scale(1,1)"><g><path fill="none" stroke="none"/><text fill="#000000" stroke="none" font-family="Arial" font-size="13px" font-style="normal" font-weight="normal" text-decoration="none" x="877" y="1185.5">+isEmpty(): boolean</text></g></g><g transform="translate(-14,-46) scale(1,1)"><g><path fill="none" stroke="none"/><text fill="#000000" stroke="none" font-family="Arial" font-size="13px" font-style="normal" font-weight="normal" text-decoration="none" x="877" y="1200.5">+peek(): TypeReceived</text></g></g><g transform="translate(-14,-46) scale(1,1)"><g><path fill="none" stroke="none"/><text fill="#000000" stroke="none" font-family="Arial" font-size="13px" font-style="normal" font-weight="normal" text-decoration="none" x="877" y="1215.5">+remove(): TypeReceived</text></g></g><g transform="translate(-14,-46) scale(1,1)"><g><path fill="none" stroke="none"/><text fill="#000000" stroke="none" font-family="Arial" font-size="13px" font-style="normal" font-weight="normal" text-decoration="none" x="877" y="1230.5">+size(): int</text></g></g><g transform="translate(-14,-46) scale(1,1)"><path fill="#C0C0C0" stroke="none" d="M 1211.444091796875 1074.5 C 1211.444091796875 1068.1487248 1216.592816596875 1063 1222.944091796875 1063 C 1229.295366996875 1063 1234.444091796875 1068.1487248 1234.444091796875 1074.5 C 1234.444091796875 1080.8512752 1229.295366996875 1086 1222.944091796875 1086 C 1216.592816596875 1086 1211.444091796875 1080.8512752 1211.444091796875 1074.5 Z" opacity="0.2"/></g><g transform="translate(-14,-46) scale(1,1)"><path fill="#ffffff" stroke="none" d="M 1204.444091796875 1067.5 C 1204.444091796875 1061.1487248 1209.592816596875 1056 1215.944091796875 1056 C 1222.295366996875 1056 1227.444091796875 1061.1487248 1227.444091796875 1067.5 C 1227.444091796875 1073.8512752 1222.295366996875 1079 1215.944091796875 1079 C 1209.592816596875 1079 1204.444091796875 1073.8512752 1204.444091796875 1067.5 Z"/></g><g transform="translate(-14,-46) scale(1,1)"><path fill="none" stroke="#000000" d="M 1204.444091796875 1067.5 C 1204.444091796875 1061.1487248 1209.592816596875 1056 1215.944091796875 1056 C 1222.295366996875 1056 1227.444091796875 1061.1487248 1227.444091796875 1067.5 C 1227.444091796875 1073.8512752 1222.295366996875 1079 1215.944091796875 1079 C 1209.592816596875 1079 1204.444091796875 1073.8512752 1204.444091796875 1067.5 Z" stroke-miterlimit="10"/></g><g transform="translate(-14,-46) scale(1,1)"><g><path fill="none" stroke="none"/><text fill="#000000" stroke="none" font-family="Arial" font-size="13px" font-style="normal" font-weight="bold" text-decoration="none" x="1194.622314453125" y="1098.5">IQueue</text></g></g><g transform="translate(-14,-46) scale(1,1)"><g><path fill="none" stroke="none"/><text fill="#000000" stroke="none" font-family="Arial" font-size="13px" font-style="normal" font-weight="normal" text-decoration="none" x="1188.5" y="1113.5">(from util)</text></g></g><g transform="translate(-14,-46) scale(1,1)"><path fill="none" stroke="#000000" d="M 1124 1106 L 1183 1094" stroke-miterlimit="10"/></g><g transform="translate(-14,-46) scale(1,1)"><path fill="none" stroke="#000000" d="M 1173.8802177330454 1100.1505748839716 L 1183 1094 L 1172.2022269074398 1091.9004533247435" stroke-miterlimit="10"/></g><g transform="translate(-14,-46) scale(1,1)"><path fill="none" stroke="#000000" d="M 871 1148 Q 696 1168 653 1068" stroke-miterlimit="10"/></g><g transform="translate(-14,-46) scale(1,1)"><path fill="none" stroke="#000000" d="M 564 340 L 719 413" stroke-miterlimit="10"/></g><g transform="translate(-14,-46) scale(1,1)"><path fill="#FFFFFF" stroke="none" d="M 697.02476621865 411.956400337766 L 719 413 L 704.1990995730573 396.7232267770381"/></g><g transform="translate(-14,-46) scale(1,1)"><path fill="none" stroke="#000000" d="M 697.02476621865 411.956400337766 L 719 413 L 704.1990995730573 396.7232267770381 L 697.02476621865 411.956400337766" stroke-miterlimit="10"/></g></g></svg>